<svg width="103" height="24" viewBox="0 0 103 24" fill="none" xmlns="http://www.w3.org/2000/svg">
<path d="M7.048 23.192C11.336 23.192 13.576 20.856 13.576 16.12V0.599998H3.048V2.648H11.24V16.216C11.24 19.512 9.832 21.144 7.08 21.144C5.096 21.144 3.464 20.184 2.248 18.392L0.84 19.992C2.216 22.04 4.52 23.192 7.048 23.192ZM20.6793 23H23.0473V0.599998H20.6793V23Z" fill="black"/>
<path d="M44.4475 11.448C46.4955 10.616 47.8715 8.92 47.8715 6.36C47.8715 2.712 44.9915 0.599998 39.9995 0.599998H30.3355V23H40.6395C46.2395 23 49.0555 20.824 49.0555 17.016C49.0555 13.976 47.3275 12.088 44.4475 11.448ZM39.8395 2.552C43.4235 2.552 45.5035 3.928 45.5035 6.616C45.5035 9.304 43.4235 10.68 39.8395 10.68H32.7035V2.552H39.8395ZM40.6075 21.048H32.7035V12.632H40.6075C44.5435 12.632 46.6875 13.912 46.6875 16.824C46.6875 19.768 44.5435 21.048 40.6075 21.048ZM64.2525 23.192C70.9725 23.192 75.9965 18.36 75.9965 11.8C75.9965 5.24 70.9725 0.407999 64.2525 0.407999C57.4685 0.407999 52.4765 5.272 52.4765 11.8C52.4765 18.328 57.4685 23.192 64.2525 23.192ZM64.2525 21.08C58.8445 21.08 54.8125 17.144 54.8125 11.8C54.8125 6.456 58.8445 2.52 64.2525 2.52C69.6285 2.52 73.6285 6.456 73.6285 11.8C73.6285 17.144 69.6285 21.08 64.2525 21.08ZM91.0963 23.192C97.8163 23.192 102.84 18.36 102.84 11.8C102.84 5.24 97.8163 0.407999 91.0963 0.407999C84.3123 0.407999 79.3203 5.272 79.3203 11.8C79.3203 18.328 84.3123 23.192 91.0963 23.192ZM91.0963 21.08C85.6883 21.08 81.6562 17.144 81.6562 11.8C81.6562 6.456 85.6883 2.52 91.0963 2.52C96.4722 2.52 100.472 6.456 100.472 11.8C100.472 17.144 96.4722 21.08 91.0963 21.08Z" fill="#FFA500"/>
<path d="M44.4475 11.448C46.4955 10.616 47.8715 8.92 47.8715 6.36C47.8715 2.712 44.9915 0.599998 39.9995 0.599998H30.3355V23H40.6395C46.2395 23 49.0555 20.824 49.0555 17.016C49.0555 13.976 47.3275 12.088 44.4475 11.448ZM39.8395 2.552C43.4235 2.552 45.5035 3.928 45.5035 6.616C45.5035 9.304 43.4235 10.68 39.8395 10.68H32.7035V2.552H39.8395ZM40.6075 21.048H32.7035V12.632H40.6075C44.5435 12.632 46.6875 13.912 46.6875 16.824C46.6875 19.768 44.5435 21.048 40.6075 21.048ZM64.2525 23.192C70.9725 23.192 75.9965 18.36 75.9965 11.8C75.9965 5.24 70.9725 0.407999 64.2525 0.407999C57.4685 0.407999 52.4765 5.272 52.4765 11.8C52.4765 18.328 57.4685 23.192 64.2525 23.192ZM64.2525 21.08C58.8445 21.08 54.8125 17.144 54.8125 11.8C54.8125 6.456 58.8445 2.52 64.2525 2.52C69.6285 2.52 73.6285 6.456 73.6285 11.8C73.6285 17.144 69.6285 21.08 64.2525 21.08ZM91.0963 23.192C97.8163 23.192 102.84 18.36 102.84 11.8C102.84 5.24 97.8163 0.407999 91.0963 0.407999C84.3123 0.407999 79.3203 5.272 79.3203 11.8C79.3203 18.328 84.3123 23.192 91.0963 23.192ZM91.0963 21.08C85.6883 21.08 81.6562 17.144 81.6562 11.8C81.6562 6.456 85.6883 2.52 91.0963 2.52C96.4722 2.52 100.472 6.456 100.472 11.8C100.472 17.144 96.4722 21.08 91.0963 21.08Z" fill="black" fill-opacity="0.2"/>
</svg>
